<!--?xml version="1.0" standalone="no"?-->
              <svg id="sw-js-blob-svg" viewBox="0 0 100 100" xmlns="http://www.w3.org/2000/svg" version="1.1">
                    <defs> 
                        <linearGradient id="sw-gradient" x1="0" x2="1" y1="1" y2="0">
                            <stop id="stop1" stop-color="rgba(255, 255, 255, 1)" offset="0%"></stop>
                            <stop id="stop2" stop-color="rgba(244.826, 244.826, 244.826, 1)" offset="100%"></stop>
                        </linearGradient>
                    </defs>
                <path fill="url(#sw-gradient)" d="M17,-24.2C23.9,-18.4,32.5,-15.9,37.8,-9.9C43.2,-3.8,45.2,5.8,40.8,11.4C36.5,17.1,25.8,18.9,17.9,24.6C10.1,30.3,5,39.9,-2.1,42.8C-9.2,45.7,-18.4,41.8,-22.6,34.9C-26.7,28,-25.9,18.1,-25.6,10.4C-25.3,2.7,-25.5,-2.8,-23.9,-7.7C-22.2,-12.6,-18.9,-17,-14.6,-23.6C-10.3,-30.2,-5.2,-39.1,0,-39.1C5.1,-39,10.2,-30,17,-24.2Z" width="100%" height="100%" transform="translate(50 50)" stroke-width="0" style="transition: all 0.3s ease 0s;" stroke="url(#sw-gradient)"></path>
              </svg>